Coordinates
version=1
nRows=23
nColumns=38
inDegrees=no

Units are S.I. units (second, meters, Newtons, ...)
If the header above contains a line with 'inDegrees', this indicates whether rotational values are in degrees (yes) or radians (no).

endheader
time	pelvis_tilt	pelvis_list	pelvis_rotation	pelvis_tx	pelvis_ty	pelvis_tz	hip_flexion_r	hip_adduction_r	hip_rotation_r	knee_angle_r	ankle_angle_r	subtalar_angle_r	mtp_angle_r	hip_flexion_l	hip_adduction_l	hip_rotation_l	knee_angle_l	ankle_angle_l	subtalar_angle_l	mtp_angle_l	lumbar_extension	lumbar_bending	lumbar_rotation	arm_flex_r	arm_add_r	arm_rot_r	elbow_flex_r	pro_sup_r	wrist_flex_r	wrist_dev_r	arm_flex_l	arm_add_l	arm_rot_l	elbow_flex_l	pro_sup_l	wrist_flex_l	wrist_dev_l
40	0.196654	1.52807	1.30937	0.712767	0.226671	1.01453	0.070253	-0.132981	-0.559309	0.298007	0.14356	0	0	-0.0542651	-0.0664673	-0.359927	0.0491748	0.0588645	0	0	-0.117681	0.0339115	0.0283548	-0.100874	-0.295647	0.0311003	0.71778	1.24398	0	0	-0.0406678	-0.194228	-0.00170279	0.587664	1.36715	0	0
40.01	0.154737	1.52435	1.34992	0.712619	0.22586	1.01426	0.0785909	-0.135588	-0.558212	0.30402	0.144535	0	0	-0.0407767	-0.0687745	-0.366384	0.0678205	0.0683042	0	0	-0.119562	0.0323725	0.0294074	-0.092002	-0.298691	0.0296579	0.718671	1.24039	0	0	-0.0358188	-0.195724	-0.0169828	0.581966	1.35333	0	0
40.02	0.120933	1.51977	1.38233	0.712464	0.224911	1.01389	0.0885301	-0.138131	-0.556782	0.311238	0.145824	0	0	-0.0246661	-0.0720906	-0.373412	0.0900044	0.0789463	0	0	-0.121552	0.0310799	0.0305585	-0.0827594	-0.302023	0.0284928	0.720455	1.23773	0	0	-0.0304755	-0.197569	-0.0312014	0.578097	1.33886	0	0
40.03	0.0935143	1.51436	1.40833	0.712296	0.223829	1.01341	0.100267	-0.140895	-0.555184	0.320306	0.147537	0	0	-0.0062375	-0.0762402	-0.380415	0.115016	0.0900594	0	0	-0.123247	0.0299576	0.0318715	-0.0733732	-0.305792	0.0274928	0.722891	1.23527	0	0	-0.0244862	-0.199803	-0.0440084	0.575107	1.325	0	0
40.04	0.0673318	1.50802	1.43263	0.712168	0.222537	1.01274	0.11476	-0.144603	-0.553537	0.332945	0.15054	0	0	0.0155208	-0.081521	-0.389472	0.145092	0.103102	0	0	-0.125005	0.0286159	0.033812	-0.0635406	-0.309805	0.0263348	0.726049	1.23153	0	0	-0.017078	-0.202554	-0.0558681	0.571502	1.31293	0	0
40.05	0.0412986	1.50092	1.45625	0.712082	0.221092	1.01189	0.131633	-0.149271	-0.55117	0.348512	0.154286	0	0	0.0396127	-0.0875743	-0.398934	0.178558	0.116595	0	0	-0.126855	0.0269113	0.0363354	-0.0533439	-0.313958	0.0251112	0.730379	1.22681	0	0	-0.00878436	-0.206305	-0.0649842	0.568451	1.30367	0	0
40.06	0.0115231	1.49291	1.48276	0.712032	0.219507	1.0108	0.151549	-0.155512	-0.54756	0.367907	0.159112	0	0	0.0654941	-0.0937626	-0.408856	0.214097	0.130263	0	0	-0.128339	0.0245034	0.039826	-0.0430797	-0.31826	0.0231588	0.736186	1.22111	0	0	0.00013152	-0.210653	-0.072195	0.566438	1.29452	0	0
40.07	-0.0226761	1.48407	1.5131	0.711977	0.217807	1.00945	0.174414	-0.163666	-0.542434	0.391284	0.164868	0	0	0.0919832	-0.0994436	-0.418702	0.249397	0.143449	0	0	-0.129599	0.0211214	0.043812	-0.0325681	-0.322736	0.0205815	0.742906	1.21609	0	0	0.00947676	-0.215712	-0.0772995	0.566021	1.28594	0	0
40.08	-0.0595783	1.47474	1.54585	0.711904	0.215963	1.00788	0.199657	-0.17367	-0.535928	0.41824	0.171005	0	0	0.117555	-0.104155	-0.428125	0.281861	0.155329	0	0	-0.131282	0.0166497	0.0478272	-0.0211532	-0.327179	0.0179935	0.750009	1.21173	0	0	0.0195842	-0.221638	-0.080553	0.566588	1.27891	0	0
40.09	-0.0992087	1.46435	1.58036	0.711893	0.213889	1.006	0.228499	-0.185419	-0.527316	0.449587	0.177842	0	0	0.142651	-0.107824	-0.438461	0.311334	0.166279	0	0	-0.132721	0.0108126	0.052775	-0.00901833	-0.331593	0.015844	0.757025	1.20722	0	0	0.0308239	-0.228416	-0.082521	0.567058	1.27401	0	0
40.1	-0.137544	1.45296	1.61294	0.711954	0.211641	1.00383	0.260123	-0.198105	-0.516765	0.483542	0.18457	0	0	0.167391	-0.110911	-0.450115	0.338279	0.176506	0	0	-0.133941	0.0040087	0.0581123	0.00402223	-0.335931	0.0144028	0.763879	1.20311	0	0	0.0426882	-0.235989	-0.0838834	0.567951	1.27229	0	0
40.11	-0.170165	1.44182	1.64067	0.711957	0.209404	1.00147	0.291604	-0.210847	-0.505617	0.517616	0.190925	0	0	0.190686	-0.114064	-0.462733	0.363278	0.187114	0	0	-0.135893	-0.00292501	0.0623983	0.0180158	-0.340423	0.013561	0.770195	1.1993	0	0	0.0549446	-0.244067	-0.083579	0.570051	1.27026	0	0
40.12	-0.194833	1.43158	1.66157	0.711909	0.207131	0.998967	0.321976	-0.223333	-0.495806	0.552225	0.197283	0	0	0.212477	-0.117912	-0.474908	0.387358	0.198405	0	0	-0.139724	-0.00931564	0.0653831	0.0334915	-0.345279	0.0145252	0.775983	1.1957	0	0	0.0682934	-0.252653	-0.0824773	0.572278	1.27003	0	0
40.13	-0.214082	1.42208	1.67773	0.711851	0.20486	0.996264	0.35121	-0.235725	-0.487812	0.587187	0.204045	0	0	0.23311	-0.122362	-0.487042	0.411015	0.210491	0	0	-0.144706	-0.0153397	0.0673799	0.0503597	-0.350288	0.0168419	0.78087	1.19214	0	0	0.0821972	-0.261698	-0.0803079	0.574757	1.2707	0	0
40.14	-0.228827	1.41328	1.68981	0.7118	0.202513	0.993381	0.3789	-0.247602	-0.481565	0.62053	0.210964	0	0	0.252998	-0.127483	-0.498907	0.434759	0.222997	0	0	-0.151026	-0.020905	0.0685561	0.0691248	-0.355464	0.0209438	0.784521	1.18816	0	0	0.0968778	-0.271014	-0.0775254	0.577474	1.27267	0	0
40.15	-0.23935	1.40517	1.69829	0.711726	0.2001	0.99033	0.404371	-0.258828	-0.478013	0.65091	0.217773	0	0	0.272388	-0.133308	-0.509939	0.458887	0.235787	0	0	-0.158715	-0.025735	0.0688381	0.0898049	-0.360714	0.0265862	0.787133	1.18215	0	0	0.112477	-0.280322	-0.0749723	0.579889	1.27721	0	0
40.16	-0.246003	1.39758	1.70462	0.711522	0.197735	0.98711	0.427035	-0.269995	-0.47877	0.678163	0.224787	0	0	0.291889	-0.139629	-0.519097	0.484032	0.248884	0	0	-0.167054	-0.0296827	0.0673643	0.111722	-0.365714	0.0321427	0.788091	1.17775	0	0	0.128633	-0.289552	-0.0719964	0.581996	1.28142	0	0
40.17	-0.250359	1.39026	1.70992	0.711248	0.195355	0.983736	0.447598	-0.28099	-0.482276	0.702832	0.232356	0	0	0.312051	-0.14653	-0.52693	0.510912	0.262081	0	0	-0.175997	-0.0330872	0.0646641	0.134803	-0.370305	0.0376294	0.787278	1.1753	0	0	0.145681	-0.29877	-0.0688213	0.583242	1.28356	0	0
40.18	-0.252322	1.38311	1.71358	0.71096	0.192904	0.980229	0.46671	-0.291529	-0.487564	0.725464	0.240336	0	0	0.333129	-0.154388	-0.533596	0.539925	0.275223	0	0	-0.18557	-0.0359698	0.0612684	0.159127	-0.374544	0.0435863	0.784934	1.17318	0	0	0.163733	-0.307967	-0.0651126	0.584183	1.28547	0	0
40.19	-0.251998	1.37609	1.71541	0.710676	0.19039	0.976615	0.484973	-0.301377	-0.493655	0.746826	0.248433	0	0	0.355006	-0.163193	-0.538887	0.570695	0.288222	0	0	-0.195528	-0.0384128	0.0577268	0.18445	-0.378566	0.0505073	0.780914	1.17055	0	0	0.183053	-0.316913	-0.0611751	0.584463	1.28744	0	0
40.2	-0.249044	1.36922	1.71475	0.710409	0.187822	0.972931	0.503027	-0.310305	-0.499218	0.767711	0.256385	0	0	0.377309	-0.172863	-0.543069	0.602291	0.300665	0	0	-0.205845	-0.040298	0.054758	0.210325	-0.382491	0.057135	0.77578	1.16663	0	0	0.204034	-0.325332	-0.0556571	0.583072	1.28643	0	0
40.21	-0.244466	1.36242	1.71237	0.710156	0.185231	0.969204	0.521398	-0.318366	-0.503028	0.788511	0.264038	0	0	0.399734	-0.183002	-0.546525	0.633858	0.312167	0	0	-0.216341	-0.0417242	0.0528206	0.236266	-0.386649	0.0639396	0.769844	1.16105	0	0	0.226699	-0.333104	-0.0482295	0.579719	1.28231	0	0
40.22	-0.239259	1.35574	1.70909	0.709917	0.182663	0.965418	0.540286	-0.325633	-0.504181	0.809594	0.271409	0	0	0.421816	-0.193377	-0.549779	0.664769	0.322939	0	0	-0.226899	-0.042974	0.0520679	0.261646	-0.391613	0.0728187	0.764067	1.14784	0	0	0.250595	-0.340672	-0.0370405	0.576193	1.26922	0	0
